<svg width="53" height="52" viewBox="0 0 53 52" fill="none" xmlns="http://www.w3.org/2000/svg">
<path d="M38.07 11.8297C37.5558 11.8297 37.0531 11.9822 36.6255 12.2679C36.1979 12.5535 35.8647 12.9596 35.6679 13.4347C35.4711 13.9098 35.4196 14.4326 35.5199 14.9369C35.6203 15.4413 35.8679 15.9045 36.2315 16.2682C36.5951 16.6318 37.0584 16.8794 37.5628 16.9797C38.0671 17.08 38.5899 17.0285 39.065 16.8318C39.5401 16.635 39.9461 16.3017 40.2318 15.8742C40.5175 15.4466 40.67 14.9439 40.67 14.4297C40.67 13.7401 40.3961 13.0788 39.9085 12.5912C39.4209 12.1036 38.7595 11.8297 38.07 11.8297ZM48.0367 17.073C47.9945 15.2753 47.6578 13.4967 47.04 11.808C46.4891 10.3631 45.6316 9.05478 44.5267 7.97301C43.4538 6.86243 42.1424 6.01039 40.6917 5.48134C39.0074 4.84469 37.2268 4.5003 35.4267 4.46301C33.13 4.33301 32.3933 4.33301 26.5 4.33301C20.6066 4.33301 19.87 4.33301 17.5733 4.46301C15.7731 4.5003 13.9926 4.84469 12.3083 5.48134C10.8603 6.01575 9.55 6.86706 8.47331 7.97301C7.36274 9.04589 6.5107 10.3573 5.98165 11.808C5.34499 13.4923 5.0006 15.2728 4.96331 17.073C4.83331 19.3697 4.83331 20.1063 4.83331 25.9997C4.83331 31.893 4.83331 32.6297 4.96331 34.9263C5.0006 36.7265 5.34499 38.5071 5.98165 40.1913C6.5107 41.6421 7.36274 42.9535 8.47331 44.0263C9.55 45.1323 10.8603 45.9836 12.3083 46.518C13.9926 47.1547 15.7731 47.4991 17.5733 47.5363C19.87 47.6663 20.6066 47.6663 26.5 47.6663C32.3933 47.6663 33.13 47.6663 35.4267 47.5363C37.2268 47.4991 39.0074 47.1547 40.6917 46.518C42.1424 45.989 43.4538 45.1369 44.5267 44.0263C45.6365 42.9486 46.4947 41.6391 47.04 40.1913C47.6578 38.5026 47.9945 36.724 48.0367 34.9263C48.0367 32.6297 48.1667 31.893 48.1667 25.9997C48.1667 20.1063 48.1667 19.3697 48.0367 17.073ZM44.1367 34.6663C44.1209 36.0417 43.8718 37.4044 43.4 38.6963C43.054 39.6393 42.4984 40.4913 41.775 41.188C41.0722 41.9041 40.222 42.4586 39.2833 42.813C37.9913 43.2848 36.6287 43.5339 35.2533 43.5497C33.0867 43.658 32.285 43.6797 26.5866 43.6797C20.8883 43.6797 20.0866 43.6797 17.92 43.5497C16.4919 43.5764 15.0699 43.3565 13.7166 42.8997C12.8192 42.5272 12.0079 41.974 11.3333 41.2747C10.6142 40.5786 10.0655 39.7259 9.72998 38.783C9.201 37.4725 8.90761 36.0789 8.86331 34.6663C8.86331 32.4997 8.73331 31.698 8.73331 25.9997C8.73331 20.3013 8.73331 19.4997 8.86331 17.333C8.87303 15.927 9.12971 14.5336 9.62165 13.2163C10.0031 12.3018 10.5886 11.4866 11.3333 10.833C11.9916 10.088 12.8051 9.49638 13.7166 9.09967C15.0373 8.6231 16.4293 8.37401 17.8333 8.36301C20 8.36301 20.8016 8.23301 26.5 8.23301C32.1983 8.23301 33 8.23301 35.1667 8.36301C36.542 8.37878 37.9047 8.62788 39.1967 9.09967C40.1813 9.46509 41.065 10.0592 41.775 10.833C42.485 11.4986 43.0398 12.3123 43.4 13.2163C43.8815 14.5357 44.1308 15.9285 44.1367 17.333C44.245 19.4997 44.2667 20.3013 44.2667 25.9997C44.2667 31.698 44.245 32.4997 44.1367 34.6663ZM26.5 14.8847C24.3026 14.889 22.1557 15.5445 20.3307 16.7684C18.5057 17.9923 17.0845 19.7298 16.2465 21.7611C15.4086 23.7925 15.1916 26.0267 15.6229 28.1814C16.0542 30.336 17.1145 32.3145 18.6698 33.8668C20.2251 35.4191 22.2057 36.4755 24.3612 36.9027C26.5167 37.3298 28.7504 37.1084 30.7802 36.2665C32.8099 35.4246 34.5446 34 35.7649 32.1726C36.9853 30.3452 37.6366 28.1971 37.6367 25.9997C37.6395 24.5374 37.3533 23.089 36.7943 21.7377C36.2354 20.3865 35.4149 19.1591 34.3799 18.1261C33.3449 17.0931 32.1159 16.275 30.7635 15.7187C29.4112 15.1624 27.9622 14.879 26.5 14.8847ZM26.5 33.2147C25.073 33.2147 23.678 32.7915 22.4915 31.9987C21.305 31.2059 20.3803 30.0791 19.8342 28.7607C19.2881 27.4424 19.1452 25.9917 19.4236 24.5921C19.702 23.1925 20.3892 21.9069 21.3982 20.8979C22.4072 19.8889 23.6928 19.2017 25.0924 18.9233C26.492 18.6449 27.9427 18.7878 29.261 19.3339C30.5794 19.88 31.7062 20.8047 32.499 21.9912C33.2918 23.1777 33.715 24.5727 33.715 25.9997C33.715 26.9472 33.5284 27.8854 33.1658 28.7607C32.8032 29.6361 32.2717 30.4315 31.6018 31.1015C30.9318 31.7714 30.1364 32.3029 29.261 32.6655C28.3857 33.0281 27.4475 33.2147 26.5 33.2147Z" fill="white"/>
</svg>
